<svg width="39" height="39" viewBox="0 0 39 39" fill="none" xmlns="http://www.w3.org/2000/svg">
<g id="211818_search_icon 1">
<path id="Vector" d="M34.1479 32.3502L25.5177 23.7123C27.1021 21.7318 28.0542 19.2105 28.0542 16.4684C28.0542 10.0623 22.8669 4.875 16.4761 4.875C10.0776 4.875 4.89795 10.0699 4.89795 16.4684C4.89795 22.8668 10.0853 28.0617 16.4761 28.0617C19.2335 28.0617 21.7624 27.0943 23.7505 25.4871L32.3731 34.125L34.1479 32.3502ZM9.14834 23.8113C7.19072 21.8537 6.1167 19.2486 6.1167 16.476C6.1167 13.7033 7.19834 11.0982 9.14834 9.14062C11.0983 7.18301 13.711 6.09375 16.4761 6.09375C19.2411 6.09375 21.8462 7.17539 23.8038 9.13301C25.7614 11.0906 26.8354 13.6957 26.8354 16.4684C26.8354 19.241 25.7538 21.8461 23.8038 23.8037C21.8462 25.7613 19.2411 26.843 16.4761 26.843C13.711 26.8506 11.106 25.7689 9.14834 23.8113Z" fill="#6A6B6C"/>
</g>
</svg>
