<svg width="33" height="33" viewBox="0 0 33 33" fill="none" xmlns="http://www.w3.org/2000/svg">
<g id="5355692_code_coding_development_programming_web_icon 1" clip-path="url(#clip0_94_2102)">
<g id="Layer 2">
<g id="Icons">
<g id="Development">
<path id="Vector" d="M5.13154 9.20706C5.4353 9.20706 5.68154 8.96081 5.68154 8.65706C5.68154 8.3533 5.4353 8.10706 5.13154 8.10706C4.82779 8.10706 4.58154 8.3533 4.58154 8.65706C4.58154 8.96081 4.82779 9.20706 5.13154 9.20706Z" fill="#190D30"/>
<path id="Vector_2" d="M8.8 9.20706C9.10376 9.20706 9.35 8.96081 9.35 8.65706C9.35 8.3533 9.10376 8.10706 8.8 8.10706C8.49624 8.10706 8.25 8.3533 8.25 8.65706C8.25 8.96081 8.49624 9.20706 8.8 9.20706Z" fill="#190D30"/>
<path id="Vector_3" d="M6.96846 9.20706C7.27221 9.20706 7.51846 8.96081 7.51846 8.65706C7.51846 8.3533 7.27221 8.10706 6.96846 8.10706C6.6647 8.10706 6.41846 8.3533 6.41846 8.65706C6.41846 8.96081 6.6647 9.20706 6.96846 9.20706Z" fill="#190D30"/>
<path id="Vector_4" d="M11 16.6376L12.65 14.9876C12.7536 14.884 12.8118 14.7435 12.8118 14.5971C12.8118 14.4506 12.7536 14.3101 12.65 14.2066C12.5465 14.103 12.406 14.0448 12.2595 14.0448C12.1131 14.0448 11.9726 14.103 11.869 14.2066L9.82302 16.258C9.72058 16.3611 9.66309 16.5005 9.66309 16.6458C9.66309 16.7911 9.72058 16.9305 9.82302 17.0336L11.869 19.0851C11.9202 19.1366 11.981 19.1775 12.048 19.2054C12.115 19.2334 12.1869 19.2477 12.2595 19.2477C12.3321 19.2477 12.404 19.2334 12.471 19.2054C12.5381 19.1775 12.5989 19.1366 12.65 19.0851C12.7525 18.982 12.81 18.8426 12.81 18.6973C12.81 18.552 12.7525 18.4126 12.65 18.3096L11 16.6376Z" fill="#190D30"/>
<path id="Vector_5" d="M18.8759 19.074C18.979 19.1765 19.1184 19.234 19.2637 19.234C19.409 19.234 19.5484 19.1765 19.6514 19.074L21.7029 17.05C21.8054 16.947 21.8629 16.8076 21.8629 16.6623C21.8629 16.517 21.8054 16.3776 21.7029 16.2745L19.6514 14.223C19.5479 14.1202 19.4077 14.0627 19.2617 14.0632C19.1158 14.0638 18.976 14.1222 18.8732 14.2258C18.7703 14.3294 18.7129 14.4695 18.7134 14.6155C18.7139 14.7614 18.7724 14.9012 18.8759 15.004L20.5259 16.654L18.8759 18.304C18.7752 18.4069 18.7187 18.5451 18.7187 18.689C18.7187 18.833 18.7752 18.9712 18.8759 19.074Z" fill="#190D30"/>
<path id="Vector_6" d="M17.05 14.3824C16.9872 14.3461 16.9179 14.3225 16.8459 14.313C16.774 14.3036 16.7009 14.3085 16.6309 14.3274C16.5609 14.3463 16.4953 14.3789 16.4379 14.4232C16.3805 14.4676 16.3324 14.5229 16.2965 14.5859L14.267 18.1499C14.2272 18.2125 14.2005 18.2825 14.1884 18.3557C14.1764 18.4289 14.1793 18.5038 14.1969 18.5759C14.2146 18.6479 14.2466 18.7156 14.2911 18.775C14.3356 18.8343 14.3917 18.8841 14.4559 18.9212C14.5201 18.9583 14.5912 18.982 14.6648 18.991C14.7385 18.9999 14.8132 18.9939 14.8844 18.9732C14.9556 18.9526 15.022 18.9177 15.0794 18.8707C15.1368 18.8238 15.1841 18.7657 15.2185 18.6999L17.27 15.1524C17.3084 15.088 17.3332 15.0164 17.3428 14.942C17.3525 14.8676 17.3469 14.7921 17.3263 14.7199C17.3057 14.6478 17.2705 14.5807 17.223 14.5226C17.1755 14.4646 17.1166 14.4169 17.05 14.3824Z" fill="#190D30"/>
<path id="Vector_7" d="M30.723 22C30.6906 21.9998 30.659 21.9896 30.6324 21.971C30.6059 21.9523 30.5857 21.926 30.5745 21.8955C30.3556 21.3198 30.0455 20.7831 29.656 20.306C29.6375 20.2794 29.6277 20.2477 29.6277 20.2153C29.6277 20.1829 29.6375 20.1512 29.656 20.1245C29.8235 19.8342 29.8689 19.4892 29.7823 19.1654C29.6957 18.8416 29.4841 18.5654 29.194 18.3975L28.7815 18.15V8.10703C28.7815 7.66942 28.6077 7.24974 28.2982 6.94031C27.9888 6.63087 27.5691 6.45703 27.1315 6.45703H4.4C3.96239 6.45703 3.54271 6.63087 3.23327 6.94031C2.92384 7.24974 2.75 7.66942 2.75 8.10703V22.044C2.75145 22.3835 2.88693 22.7086 3.12694 22.9486C3.36696 23.1886 3.69207 23.3241 4.0315 23.3255H11.55L11 25.3605H10.2685C9.7328 25.3609 9.21287 25.5419 8.79271 25.8742C8.37256 26.2065 8.07672 26.6708 7.953 27.192H6.6C6.45413 27.192 6.31424 27.25 6.21109 27.3531C6.10795 27.4563 6.05 27.5962 6.05 27.742C6.05 27.8879 6.10795 28.0278 6.21109 28.1309C6.31424 28.2341 6.45413 28.292 6.6 28.292H20.6085C20.5992 28.4234 20.6122 28.5555 20.647 28.6825C20.6882 28.8439 20.7616 28.9952 20.8627 29.1275C20.9639 29.2598 21.0906 29.3704 21.2355 29.4525L22.396 30.1235C22.5401 30.2062 22.6991 30.2598 22.8638 30.281C23.0286 30.3023 23.196 30.2909 23.3563 30.2475C23.5167 30.2041 23.667 30.1295 23.7985 30.028C23.93 29.9265 24.0403 29.8001 24.123 29.656C24.1408 29.628 24.1665 29.6057 24.1967 29.5921C24.227 29.5784 24.2607 29.5739 24.2935 29.579C24.8977 29.6835 25.5153 29.6835 26.1195 29.579C26.153 29.5736 26.1873 29.5786 26.2178 29.5934C26.2483 29.6081 26.2735 29.6319 26.29 29.6615C26.4021 29.8535 26.5628 30.0125 26.7559 30.1226C26.949 30.2326 27.1677 30.2899 27.39 30.2885C27.6117 30.2907 27.8301 30.2337 28.0225 30.1235L29.183 29.4525C29.3271 29.3694 29.4533 29.2586 29.5543 29.1264C29.6553 28.9942 29.7291 28.8434 29.7715 28.6825C29.8153 28.5226 29.8267 28.3556 29.8049 28.1912C29.7832 28.0269 29.7288 27.8686 29.645 27.7255C29.6261 27.698 29.6159 27.6654 29.6159 27.632C29.6159 27.5986 29.6261 27.566 29.645 27.5385C30.0333 27.0626 30.3433 26.5279 30.5635 25.9545C30.574 25.9236 30.594 25.8969 30.6207 25.8781C30.6474 25.8593 30.6794 25.8495 30.712 25.85C31.0471 25.8486 31.368 25.7148 31.6049 25.4779C31.8418 25.241 31.9755 24.9201 31.977 24.585V23.243C31.9713 22.9133 31.837 22.5988 31.6027 22.3666C31.3685 22.1344 31.0528 22.0029 30.723 22ZM3.85 8.10703C3.85 7.96116 3.90795 7.82127 4.01109 7.71812C4.11424 7.61498 4.25413 7.55703 4.4 7.55703H27.1315C27.2774 7.55703 27.4173 7.61498 27.5204 7.71812C27.6236 7.82127 27.6815 7.96116 27.6815 8.10703V9.75703H3.85V8.10703ZM4.0315 22.2255C4.00766 22.2255 3.98406 22.2208 3.96204 22.2117C3.94002 22.2026 3.92001 22.1892 3.90316 22.1724C3.88631 22.1555 3.87294 22.1355 3.86382 22.1135C3.85469 22.0915 3.85 22.0679 3.85 22.044V10.857H27.6815V17.6C27.4212 17.5309 27.1457 17.547 26.8952 17.646C26.6448 17.745 26.4327 17.9216 26.29 18.15C26.2729 18.1772 26.248 18.1985 26.2185 18.2113C26.1891 18.224 26.1565 18.2276 26.125 18.2215C25.5204 18.1225 24.9036 18.1225 24.299 18.2215C24.2675 18.2284 24.2346 18.2252 24.205 18.2124C24.1754 18.1995 24.1505 18.1777 24.134 18.15C24.0514 18.0058 23.941 17.8794 23.8094 17.7781C23.6777 17.6767 23.5272 17.6024 23.3667 17.5595C23.2061 17.5166 23.0387 17.5058 22.874 17.5279C22.7093 17.5499 22.5506 17.6044 22.407 17.688L21.2465 18.359C21.102 18.4403 20.9754 18.5499 20.8743 18.6813C20.7732 18.8126 20.6996 18.9631 20.658 19.1235C20.57 19.4478 20.6135 19.7936 20.779 20.086C20.7991 20.112 20.81 20.1439 20.81 20.1768C20.81 20.2096 20.7991 20.2415 20.779 20.2675C20.3895 20.7446 20.0794 21.2813 19.8605 21.857C19.8493 21.8875 19.8291 21.9138 19.8026 21.9325C19.776 21.9511 19.7444 21.9613 19.712 21.9615C19.4426 21.9619 19.1804 22.0487 18.964 22.209L4.0315 22.2255ZM18.7 25.3605H12.1L12.65 23.3255H18.425V24.585C18.4285 24.8668 18.5252 25.1395 18.7 25.3605ZM10.274 26.4605H20.064C20.1897 26.7141 20.3331 26.9585 20.493 27.192H9.1135C9.21734 26.9735 9.38091 26.7888 9.5853 26.6594C9.7897 26.5299 10.0266 26.461 10.2685 26.4605H10.274ZM30.888 24.585C30.888 24.6288 30.8706 24.6708 30.8397 24.7017C30.8087 24.7326 30.7668 24.75 30.723 24.75C30.4668 24.7507 30.2168 24.8287 30.0058 24.974C29.7947 25.1193 29.6325 25.3249 29.5405 25.564C29.3647 26.0277 29.1159 26.4604 28.8035 26.8455C28.6424 27.0445 28.5452 27.2875 28.5246 27.5427C28.504 27.7978 28.5609 28.0533 28.688 28.2755C28.6968 28.2945 28.7014 28.3151 28.7014 28.336C28.7014 28.3569 28.6968 28.3776 28.688 28.3965C28.6832 28.4184 28.6739 28.439 28.6606 28.457C28.6473 28.475 28.6304 28.49 28.611 28.501L27.467 29.15C27.4479 29.1607 27.4269 29.1674 27.4051 29.1698C27.3834 29.1722 27.3614 29.1703 27.3404 29.1642C27.3195 29.1581 27.2999 29.1478 27.2829 29.134C27.2659 29.1203 27.2519 29.1033 27.2415 29.084C27.1115 28.8624 26.9173 28.6854 26.6845 28.5764C26.4518 28.4674 26.1915 28.4315 25.938 28.4735C25.4538 28.556 24.9592 28.556 24.475 28.4735C24.2209 28.432 23.9602 28.4687 23.7274 28.5787C23.4946 28.6887 23.3008 28.8669 23.1715 29.0895C23.1487 29.1264 23.1126 29.1532 23.0707 29.1644C23.0288 29.1757 22.9842 29.1705 22.946 29.15L21.7855 28.479C21.7661 28.468 21.7492 28.453 21.7359 28.435C21.7226 28.417 21.7133 28.3964 21.7085 28.3745C21.6997 28.3556 21.6951 28.3349 21.6951 28.314C21.6951 28.2931 21.6997 28.2725 21.7085 28.2535C21.8341 28.0308 21.8902 27.7757 21.8696 27.5209C21.849 27.266 21.7527 27.0232 21.593 26.8235C21.2778 26.4394 21.027 26.0066 20.8505 25.542C20.7582 25.3092 20.5984 25.1094 20.3916 24.9682C20.1848 24.8271 19.9404 24.7511 19.69 24.75C19.6462 24.75 19.6043 24.7326 19.5733 24.7017C19.5424 24.6708 19.525 24.6288 19.525 24.585V23.243C19.5242 23.2212 19.528 23.1994 19.536 23.179C19.544 23.1586 19.5561 23.1401 19.5716 23.1247C19.5871 23.1092 19.6056 23.097 19.626 23.089C19.6463 23.081 19.6681 23.0773 19.69 23.078C19.9454 23.077 20.1946 22.9988 20.4047 22.8535C20.6148 22.7082 20.7759 22.5027 20.867 22.264C21.0423 21.7989 21.2932 21.3659 21.6095 20.9825C21.7692 20.7829 21.8655 20.54 21.8861 20.2852C21.9067 20.0304 21.8506 19.7752 21.725 19.5525C21.716 19.5326 21.7114 19.5111 21.7114 19.4893C21.7114 19.4675 21.716 19.4459 21.725 19.426C21.7295 19.4048 21.7387 19.3848 21.7521 19.3676C21.7654 19.3505 21.7825 19.3366 21.802 19.327L22.9625 18.656C22.9895 18.6485 23.018 18.6485 23.045 18.656C23.0725 18.6564 23.0995 18.6636 23.1235 18.6771C23.1476 18.6905 23.1678 18.7097 23.1825 18.733C23.3123 18.9552 23.5063 19.1328 23.7389 19.2428C23.9715 19.3527 24.232 19.3897 24.486 19.349C24.9702 19.2666 25.4648 19.2666 25.949 19.349C26.2047 19.3836 26.4649 19.3401 26.6956 19.2243C26.9262 19.1085 27.1165 18.9258 27.2415 18.7C27.2523 18.6819 27.2665 18.6661 27.2834 18.6535C27.3003 18.6409 27.3196 18.6317 27.34 18.6266C27.3605 18.6215 27.3818 18.6205 27.4026 18.6237C27.4235 18.6268 27.4435 18.6341 27.4615 18.645L28.622 19.316C28.6415 19.3256 28.6586 19.3395 28.6719 19.3566C28.6853 19.3738 28.6945 19.3938 28.699 19.415C28.708 19.4349 28.7126 19.4565 28.7126 19.4783C28.7126 19.5001 28.708 19.5216 28.699 19.5415C28.5724 19.7629 28.5157 20.0174 28.5363 20.2717C28.5569 20.5259 28.6539 20.7679 28.8145 20.966C29.127 21.3531 29.3758 21.7876 29.5515 22.253C29.6382 22.4961 29.7966 22.7072 30.0057 22.8584C30.2149 23.0097 30.465 23.0939 30.723 23.1C30.7449 23.0993 30.7667 23.103 30.787 23.111C30.8074 23.119 30.8259 23.1312 30.8414 23.1466C30.8569 23.1621 30.869 23.1806 30.877 23.201C30.885 23.2214 30.8888 23.2432 30.888 23.265V24.585Z" fill="#190D30"/>
<path id="Vector_8" d="M25.2065 21.417C24.7126 21.417 24.2298 21.5634 23.8192 21.8378C23.4086 22.1122 23.0885 22.5022 22.8995 22.9584C22.7106 23.4147 22.6611 23.9168 22.7575 24.4011C22.8538 24.8855 23.0916 25.3304 23.4408 25.6796C23.79 26.0289 24.235 26.2667 24.7193 26.363C25.2037 26.4594 25.7058 26.4099 26.162 26.2209C26.6183 26.0319 27.0083 25.7119 27.2827 25.3013C27.557 24.8906 27.7035 24.4079 27.7035 23.914C27.7035 23.2517 27.4404 22.6166 26.9721 22.1483C26.5038 21.6801 25.8687 21.417 25.2065 21.417ZM25.2065 25.311C24.9302 25.311 24.6601 25.2291 24.4303 25.0756C24.2006 24.9221 24.0215 24.7039 23.9158 24.4486C23.8101 24.1933 23.7824 23.9124 23.8363 23.6415C23.8902 23.3705 24.0233 23.1215 24.2186 22.9262C24.414 22.7308 24.6629 22.5977 24.9339 22.5438C25.2049 22.4899 25.4858 22.5176 25.7411 22.6233C25.9964 22.7291 26.2145 22.9081 26.368 23.1379C26.5215 23.3676 26.6035 23.6377 26.6035 23.914C26.6006 24.2826 26.4521 24.6351 26.1904 24.8947C25.9288 25.1543 25.5751 25.3 25.2065 25.3V25.311Z" fill="#190D30"/>
</g>
</g>
</g>
</g>
<defs>
<clipPath id="clip0_94_2102">
<rect width="33" height="33" fill="white"/>
</clipPath>
</defs>
</svg>
